# xmcd CD database file
#
# Track frame offsets:
#	150
#	23304
#	50288
#	79718
#	113156
#	137003
#	161543
#	200181
#	227808
#	251502
#
# Disc length: 3569 seconds
#
# Revision: 2
# Processed by: cddbd v1.5.1PL2 Copyright (c) Steve Scherf et al.
# Submitted via: CDex 1.51
#
DISCID=780def0a
DTITLE=Various Artist - Norge - Disc1
DYEAR=2005
DGENRE=Jazz
TTITLE0=Wibutee - Playmachine
TTITLE1=Bugge Wesseltoft - Oh Ye
TTITLE2=Eivind Aarset - Connectic
TTITLE3=Nils Petter Molvaer - Hurry slowly
TTITLE4=Audun Kleive - Exploded cod
TTITLE5=Sidsel Endresen and Bugge Wesseltoft - Truth
TTITLE6=On/Off - Gambut
TTITLE7=Bugge Wesseltoft - Skog
TTITLE8=Wibutee - We are in space, so are you
TTITLE9=Terje Isungset - Spring
EXTD=YEAR: 2005
EXTT0=
EXTT1=
EXTT2=
EXTT3=
EXTT4=
EXTT5=
EXTT6=
EXTT7=
EXTT8=
EXTT9=
PLAYORDER=
